<svg xmlns="http://www.w3.org/2000/svg" width="32" height="31" viewBox="0 0 32 31">
  <g id="bagg" transform="translate(0.413 0.32)">
    <g id="Layer_x0020_1" transform="translate(5.074 3.531)">
      <path id="Path_3" data-name="Path 3" d="M2.981,2.089H5.591a16.73,16.73,0,0,0-.417,3.849.728.728,0,0,0,.766.683.728.728,0,0,0,.766-.683,15.294,15.294,0,0,1,.45-3.849h8.917a15.293,15.293,0,0,1,.45,3.849.771.771,0,0,0,1.531,0,16.73,16.73,0,0,0-.417-3.849h2.723a.366.366,0,0,1,.383.327L22.158,17.8h0a.356.356,0,0,1-.35.368H1.562a.364.364,0,0,1-.383-.341.307.307,0,0,1,0-.042L2.6,2.4l.381.027L2.6,2.4a.369.369,0,0,1,.384-.313Z" transform="translate(-1.179 4.379)" fill="#333232"/>
      <path id="Path_4" data-name="Path 4" d="M2.093,11.522a.383.383,0,0,0,.766,0c0-4.858,1.4-7.946,3.2-9.279A3.5,3.5,0,0,1,8.15,1.5a3.5,3.5,0,0,1,2.093.739c1.8,1.333,3.2,4.421,3.2,9.279a.383.383,0,0,0,.766,0c0-5.127-1.539-8.43-3.509-9.892A4.252,4.252,0,0,0,8.15.738,4.252,4.252,0,0,0,5.6,1.63c-1.97,1.463-3.509,4.765-3.509,9.892Z" transform="translate(2.285 -0.738)" fill="#333232"/>
    </g>
    <rect id="Rectangle_9" data-name="Rectangle 9" width="32" height="31" transform="translate(-0.413 -0.32)" fill="none"/>
  </g>
</svg>
